<svg width="98" height="40" viewBox="0 0 98 40" fill="none" xmlns="http://www.w3.org/2000/svg">
<g clip-path="url(#clip0_107_67)">
<mask id="mask0_107_67" style="mask-type:luminance" maskUnits="userSpaceOnUse" x="0" y="5" width="98" height="30">
<path d="M98 5.6084H0V34.3916H98V5.6084Z" fill="white"/>
</mask>
<g mask="url(#mask0_107_67)">
<path d="M97.9548 24.8799V34.3804H0.512695L97.9548 24.8799Z" fill="#005200"/>
<path d="M53.8071 9.80098L57.9417 9.41099L62.2243 8.99935C63.2447 8.85246 64.2864 8.91901 65.2769 9.19434C65.8617 9.36874 66.3842 9.69393 66.7863 10.1338C67.1885 10.5736 67.4545 11.1109 67.5549 11.6859C67.7542 12.502 67.7542 13.3506 67.5549 14.1667C67.2851 15.1686 66.6256 16.0358 65.7097 16.5933L65.3794 16.7991L65.9148 16.9724C66.5212 17.1817 67.0551 17.5464 67.4571 18.0263C67.8591 18.5062 68.1137 19.0825 68.1927 19.6915C68.4395 20.9194 68.2428 22.1906 67.6346 23.2989C67.279 23.9556 66.7639 24.5222 66.132 24.9518C65.5001 25.3813 64.7697 25.6613 64.0012 25.7688C63.0558 25.9421 62.0991 26.0179 61.1423 26.1154C59.7072 26.2671 58.2606 26.3971 56.8255 26.5379L53.9779 26.8088H53.7388L53.8071 9.80098ZM58.0898 22.6597L59.5933 22.5189C60.4247 22.443 61.2676 22.3781 62.0991 22.2589C62.5157 22.2311 62.91 22.0689 63.2165 21.799C63.5231 21.5291 63.7235 21.1678 63.7848 20.7748C63.8361 20.5976 63.8495 20.4125 63.8243 20.2304C63.7991 20.0481 63.7359 19.8726 63.6381 19.7141C63.5405 19.5556 63.4104 19.4172 63.2557 19.3073C63.1009 19.1974 62.9245 19.118 62.7369 19.074C62.465 19.0363 62.1888 19.0363 61.9168 19.074C61.1992 19.074 60.4816 19.1931 59.7755 19.2582L58.0898 19.3665V22.6597ZM58.0898 16.2249C59.1604 16.1275 60.2083 16.0299 61.2676 15.9108C61.8103 15.8827 62.3223 15.6624 62.7028 15.2933C62.9233 15.0717 63.0702 14.7931 63.1248 14.4925C63.1795 14.1919 63.1397 13.8826 63.0103 13.6034C62.9022 13.3583 62.7146 13.1526 62.4749 13.0161C62.2351 12.8797 61.9558 12.8197 61.6777 12.8451C61.3743 12.8235 61.0697 12.8235 60.7665 12.8451L58.0898 13.1917V16.2249Z" fill="white"/>
<path d="M25.0585 29.5928L20.7759 29.9936C20.7759 24.3099 20.8025 18.637 20.8556 12.975L24.0334 12.6716L25.0585 12.5742C25.1238 12.5547 25.1942 12.5582 25.2569 12.5841C25.3197 12.6099 25.3705 12.6564 25.4002 12.715C27.4428 15.6038 29.4855 18.4673 31.5281 21.3055C31.5808 21.3772 31.6463 21.4395 31.7217 21.4897V11.935L35.9702 11.5342L35.9019 28.5528L34.5806 28.6828L31.6648 28.9536C31.6345 28.9672 31.6014 28.9741 31.5679 28.9741C31.5345 28.9741 31.5014 28.9672 31.4711 28.9536C31.4068 28.9289 31.3541 28.8827 31.3231 28.8236C29.2956 25.9348 27.2606 23.0785 25.218 20.2548L25.0813 20.0705H25.0585V29.5928Z" fill="white"/>
<path d="M83.3189 7.00586V11.0791L74.5147 11.9132V14.3398L82.6699 13.5707V17.3839L74.4804 18.1638V20.7745L83.3984 19.9296V24.0244L70.1177 25.2811C70.1177 19.6046 70.1444 13.9317 70.1979 8.26249L83.3189 7.00586Z" fill="white"/>
<path d="M42.9863 14.9137V17.3403L51.1416 16.5603V20.3844L42.9635 21.1643V23.8076L51.8819 22.9409V27.0033L38.6011 28.2816C38.6011 22.5943 38.6011 16.9394 38.6695 11.263L51.7908 10.0063V14.0687L42.9863 14.9137Z" fill="white"/>
<path d="M88.8426 10.3857L84.2866 10.8191V6.90836L97.9545 5.6084V9.51911L93.1937 9.94159V23.0712L88.8426 23.4828V10.3857Z" fill="white"/>
<path d="M0.000488281 31.9649C0.000488281 26.2776 0.000488281 20.6228 0.0802184 14.9463L4.37427 14.5347V27.4367L12.1651 26.7001V30.8058L0.000488281 31.9649Z" fill="white"/>
<path d="M18.0763 30.2317L13.748 30.6434C13.748 24.9561 13.748 19.3013 13.8164 13.6139L18.1446 13.1914C18.1218 18.8896 18.099 24.5444 18.0763 30.2317Z" fill="white"/>
</g>
</g>
<defs>
<clipPath id="clip0_107_67">
<rect width="98" height="28.7832" fill="white" transform="translate(0 5.6084)"/>
</clipPath>
</defs>
</svg>
